# xmcd
#
# Track frame offsets:
#	150
#	19801
#	30844
#	41623
#	56947
#	82831
#	96169
#	108531
#	120699
#	142013
#	158318
#	180490
#	193340
#	208896
#	226339
#	242026
#
# Disc length: 3449 seconds
#
# Revision: 3
# Processed by: cddbd v1.5.2PL0 Copyright (c) Steve Scherf et al.
# Submitted via: EasyCDDAExtractor 16.0.8.2
#
DISCID=d30d7710
DTITLE=Jerry Williams - Golden Hits Live
DYEAR=2004
DGENRE=Rock and Roll
TTITLE0=I Can Jive
TTITLE1=If You Want My Love
TTITLE2=(You're The) Devil In Disguise
TTITLE3=It Started With A Love Affair
TTITLE4=En Vintersaga
TTITLE5=Rip It Up
TTITLE6=Billy Jean, Charlie Brown and Susie Q
TTITLE7=Get It
TTITLE8=Working Class Hero
TTITLE9=Modern Music
TTITLE10=Someone
TTITLE11=Deep In The Heart Of Texas
TTITLE12=Personal Jesus
TTITLE13=I'm Going Home
TTITLE14=Did I Tell You
TTITLE15=Garden Party
EXTD=
EXTT0=
EXTT1=
EXTT2=
EXTT3=
EXTT4=
EXTT5=
EXTT6=
EXTT7=
EXTT8=
EXTT9=
EXTT10=
EXTT11=
EXTT12=
EXTT13=
EXTT14=
EXTT15=
PLAYORDER=
